<svg xmlns="http://www.w3.org/2000/svg" width="66" height="66" viewBox="0 0 66 66">
    <g fill="none" fill-rule="nonzero">
        <path fill="#3AB03E" d="M0 33C0 14.775 14.775 0 33 0s33 14.775 33 33-14.775 33-33 33S0 51.225 0 33z"/>
        <path fill="#FFF" d="M35.467 34.652a5.024 5.024 0 0 0 2.061-1.837c.5-.79.763-1.702.762-2.632 0-2.746-2.254-4.97-5.031-4.97-2.778 0-5.033 2.224-5.033 4.97-.001.93.263 1.842.762 2.632.5.79 1.215 1.427 2.063 1.836v6.139h4.416v-6.138zM33.26 48.91c-8.88 0-16.105-7.137-16.105-15.911 0-8.774 7.225-15.91 16.105-15.91 7.247 0 13.39 4.753 15.405 11.269h5.55c-2.141-9.484-10.71-16.573-20.955-16.573-11.86 0-21.473 9.498-21.473 21.214S21.4 54.214 33.259 54.214c10.244 0 18.814-7.089 20.955-16.573h-5.55c-2.017 6.518-8.158 11.27-15.405 11.27z"/>
    </g>
</svg>
