<svg xmlns="http://www.w3.org/2000/svg" width="66" height="66" viewBox="0 0 66 66">
    <g fill="none" fill-rule="nonzero">
        <path fill="#F1385B" d="M0 33C0 14.775 14.775 0 33 0s33 14.775 33 33-14.775 33-33 33S0 51.225 0 33z"/>
        <path fill="#FFF" d="M36.228 56.309l-.192-1.392a20.57 20.57 0 0 0 5.804-1.765l.566 1.279a21.889 21.889 0 0 1-6.18 1.876l.002.002zM55.62 33.116a24.248 24.248 0 0 1-.91 6.6l-1.303-.396c.569-2.015.857-4.104.855-6.204v-.036l1.358-.004v.04zM52.012 20.42a23.719 23.719 0 0 1 2.687 6.06l-1.303.396a22.278 22.278 0 0 0-2.525-5.695l1.141-.761zm-1.121 24.6l1.142.761a23.313 23.313 0 0 1-4.217 5.038l-.888-1.061a21.931 21.931 0 0 0 3.963-4.738zM42.37 11.786a22.546 22.546 0 0 1 5.418 3.602l-.889 1.064a21.192 21.192 0 0 0-5.093-3.385l.564-1.28zM38.946 27.34h3.164l4.115 6.286V27.34h3.225v11.376h-3.21l-4.101-6.252v6.252h-3.193V27.339zM32.999 9.69c1.067 0 2.132.077 3.189.231l-.19 1.393a20.805 20.805 0 0 0-6.053.008l-.193-1.393c1.075-.16 2.16-.24 3.247-.24zm-6.538 17.65h3.385v6.93c0 .62.169 1.105.5 1.453.332.349.794.523 1.383.523.583 0 1.048-.172 1.38-.515.332-.343.505-.83.505-1.46v-6.93h3.384v6.769a5.894 5.894 0 0 1-.31 1.901 4.14 4.14 0 0 1-.954 1.565c-.432.446-.885.76-1.36.94-.66.254-1.45.38-2.374.38a14.447 14.447 0 0 1-1.747-.116c-.631-.077-1.16-.231-1.583-.46a3.99 3.99 0 0 1-1.164-.98c-.351-.424-.596-.86-.726-1.31-.21-.722-.32-1.363-.32-1.92v-6.77h.001zm3.52 27.58l-.19 1.392a21.892 21.892 0 0 1-6.181-1.873l.564-1.28c1.844.873 3.8 1.466 5.808 1.76zm-6.405-43.107l.567 1.279a21.202 21.202 0 0 0-5.085 3.398l-.891-1.062a22.554 22.554 0 0 1 5.41-3.615zm-7.012 15.527h8.365v2.447H19.98v1.984h4.247v2.282H19.98v4.663h-3.416V27.339zm2.522 22.43l-.89 1.064a23.319 23.319 0 0 1-4.22-5.035l1.142-.762a21.92 21.92 0 0 0 3.968 4.734zm-5.13-29.298l1.143.76a22.289 22.289 0 0 0-2.511 5.702l-1.305-.396a23.718 23.718 0 0 1 2.672-6.068v.002zm-2.218 12.665c0 2.1.29 4.189.86 6.203l-1.303.397a24.235 24.235 0 0 1-.915-6.599h1.358z"/>
    </g>
</svg>
