<svg xmlns="http://www.w3.org/2000/svg" width="66" height="66" viewBox="0 0 66 66">
    <g fill="none" fill-rule="evenodd">
        <path fill="#2176FF" fill-rule="nonzero" d="M56.07 9.538c-12.815-12.717-33.644-12.717-46.46 0-12.814 12.718-12.814 33.39 0 46.107 12.816 12.718 33.645 12.718 46.46 0 12.814-12.717 12.814-33.39 0-46.107z"/>
        <path fill="#FFF" d="M50.944 33.308l-17.381 17.25a1.046 1.046 0 0 1-1.491 0L14.69 33.308a1.028 1.028 0 0 1 0-1.48L32.072 14.58a1.046 1.046 0 0 1 1.49 0l17.382 17.25c.42.416.42 1.063 0 1.48z"/>
    </g>
</svg>
