<svg xmlns="http://www.w3.org/2000/svg" width="66" height="66" viewBox="0 0 66 66">
    <g fill="none" fill-rule="nonzero">
        <path fill="#1C2E4C" d="M33 66c18.225 0 33-14.775 33-33S51.225 0 33 0 0 14.775 0 33s14.775 33 33 33z"/>
        <path fill="#FFF" d="M51.405 48.442v-7.1l-6.83 3.867v7.1z"/>
        <path fill="#1C2E4C" d="M51.633 40.951c.139.081.224.23.224.39v7.102a.452.452 0 0 1-.23.393l-6.829 3.867a.452.452 0 0 1-.675-.393v-7.101c0-.163.088-.313.23-.394l6.83-3.867a.452.452 0 0 1 .45.003zm-6.605 4.521v6.062l5.925-3.355v-6.061l-5.925 3.354z"/>
        <path fill="#FFF" d="M37.724 48.442v-7.1l6.852 3.867v7.1z"/>
        <path fill="#1C2E4C" d="M37.495 40.951a.452.452 0 0 1 .45-.003l6.853 3.867c.142.08.23.23.23.394v7.1a.452.452 0 0 1-.675.394l-6.852-3.867a.452.452 0 0 1-.23-.393v-7.101c0-.16.086-.31.224-.39zm.68 1.165v6.062l5.948 3.357v-6.062l-5.947-3.357z"/>
        <path fill="#FFF" d="M44.576 37.475l-6.852 3.867 6.852 3.867 6.829-3.867z"/>
        <path fill="#1C2E4C" d="M44.353 37.08a.452.452 0 0 1 .445.001l6.83 3.867a.452.452 0 0 1 0 .787l-6.83 3.867a.452.452 0 0 1-.445 0l-6.852-3.866a.452.452 0 0 1 0-.788l6.852-3.867zm-5.71 4.262l5.932 3.347 5.912-3.347-5.912-3.348-5.931 3.348z"/>
        <path fill="#FFF" d="M51.405 37.791v-7.1l-6.83 3.89v7.077z"/>
        <path fill="#1C2E4C" d="M51.632 30.3c.14.08.225.23.225.39v7.101a.452.452 0 0 1-.23.394l-6.829 3.867a.452.452 0 0 1-.675-.394V34.58c0-.162.088-.312.229-.393l6.83-3.89a.452.452 0 0 1 .45.003zm-6.604 4.543v6.04l5.925-3.355v-6.06l-5.925 3.375z"/>
        <path fill="#FFF" d="M37.724 37.791v-7.1l6.852 3.89v7.077z"/>
        <path fill="#1C2E4C" d="M37.496 30.3a.452.452 0 0 1 .45-.003l6.853 3.89c.141.08.229.23.229.393v7.078a.452.452 0 0 1-.675.394l-6.852-3.867a.452.452 0 0 1-.23-.394v-7.1c0-.161.086-.31.225-.391zm.68 1.167v6.06l5.947 3.357v-6.04l-5.947-3.377z"/>
        <path fill="#FFF" d="M44.576 26.824l-6.852 3.867 6.852 3.89 6.829-3.89z"/>
        <path fill="#1C2E4C" d="M44.353 26.43a.452.452 0 0 1 .445 0l6.83 3.867a.452.452 0 0 1 0 .787l-6.829 3.89a.452.452 0 0 1-.447 0l-6.852-3.89a.452.452 0 0 1 .001-.787l6.852-3.867zm-5.711 4.262l5.933 3.368 5.914-3.368-5.914-3.349-5.933 3.349z"/>
        <path fill="#FFF" d="M25.92 41.342V34.24l-6.83 3.867v7.1z"/>
        <path fill="#1C2E4C" d="M26.147 33.85c.14.081.225.23.225.391v7.1a.452.452 0 0 1-.23.394l-6.829 3.867a.452.452 0 0 1-.675-.393v-7.101c0-.163.088-.313.23-.394l6.829-3.867a.452.452 0 0 1 .45.003zm-6.605 4.522v6.06l5.925-3.354v-6.061l-5.925 3.355z"/>
        <path fill="#FFF" d="M12.238 41.342V34.24l6.852 3.867v7.1z"/>
        <path fill="#1C2E4C" d="M12.01 33.85a.452.452 0 0 1 .45-.003l6.852 3.867c.142.08.23.23.23.394v7.1a.452.452 0 0 1-.674.394l-6.852-3.866a.452.452 0 0 1-.23-.394V34.24c0-.16.085-.31.224-.39zm.68 1.166v6.062l5.948 3.356v-6.062l-5.948-3.356z"/>
        <path fill="#FFF" d="M19.09 30.374l-6.852 3.867 6.852 3.867 6.83-3.867z"/>
        <path fill="#1C2E4C" d="M18.868 29.98a.452.452 0 0 1 .445 0l6.83 3.867a.452.452 0 0 1 0 .788l-6.83 3.867a.452.452 0 0 1-.445 0l-6.852-3.867a.452.452 0 0 1 0-.788l6.852-3.867zm-5.71 4.261l5.932 3.347L25 34.241l-5.911-3.347-5.932 3.347z"/>
        <path fill="#FFF" d="M35.235 46.814v-7.078l-6.83 3.867v7.1z"/>
        <path fill="#1C2E4C" d="M35.463 39.345c.139.081.224.23.224.391v7.078a.452.452 0 0 1-.228.393l-6.83 3.89a.452.452 0 0 1-.676-.393v-7.1c0-.164.088-.314.23-.394l6.83-3.867a.452.452 0 0 1 .45.002zm-6.605 4.522v6.059l5.925-3.375v-6.039l-5.925 3.355z"/>
        <path fill="#FFF" d="M21.554 46.814v-7.078l6.852 3.867v7.1z"/>
        <path fill="#1C2E4C" d="M21.328 39.346a.452.452 0 0 1 .45-.004l6.852 3.867c.142.08.23.231.23.394v7.1a.452.452 0 0 1-.676.394l-6.851-3.89a.452.452 0 0 1-.23-.393v-7.078c0-.16.086-.31.225-.39zm.68 1.165v6.04l5.947 3.376v-6.06l-5.947-3.356z"/>
        <path fill="#FFF" d="M28.406 35.847l-6.852 3.89 6.852 3.866 6.829-3.867z"/>
        <path fill="#1C2E4C" d="M28.184 35.453a.452.452 0 0 1 .448 0l6.829 3.89a.452.452 0 0 1-.001.787l-6.83 3.867a.452.452 0 0 1-.445 0l-6.852-3.867a.452.452 0 0 1 0-.787l6.851-3.89zm-5.71 4.282l5.933 3.349 5.914-3.349-5.914-3.368-5.933 3.368z"/>
        <path fill="#FFF" d="M44.576 52.31v-7.101l-6.852 3.867v7.1z"/>
        <path fill="#1C2E4C" d="M44.803 44.818c.14.081.225.23.225.39v7.101a.452.452 0 0 1-.23.394l-6.852 3.867a.452.452 0 0 1-.675-.394v-7.1c0-.163.088-.314.23-.394l6.852-3.867a.452.452 0 0 1 .45.003zm-6.627 4.522v6.062l5.947-3.357v-6.062l-5.947 3.357z"/>
        <path fill="#FFF" d="M30.895 52.31v-7.101l6.83 3.867v7.1z"/>
        <path fill="#1C2E4C" d="M30.667 44.818a.452.452 0 0 1 .45-.003l6.83 3.867c.142.08.23.23.23.394v7.1a.452.452 0 0 1-.676.394l-6.83-3.867a.452.452 0 0 1-.229-.394v-7.1c0-.161.086-.31.225-.391zm.68 1.167v6.06l5.925 3.356v-6.062l-5.925-3.354z"/>
        <path fill="#FFF" d="M37.724 41.342l-6.829 3.867 6.83 3.867 6.851-3.867z"/>
        <path fill="#1C2E4C" d="M37.501 40.948a.452.452 0 0 1 .445 0l6.852 3.867a.452.452 0 0 1 0 .788l-6.852 3.867a.452.452 0 0 1-.445 0l-6.83-3.868a.452.452 0 0 1 0-.787l6.83-3.867zm.223.913l-5.911 3.348 5.911 3.347 5.932-3.347-5.932-3.348z"/>
        <path fill="#FFF" d="M44.576 23.206v-7.101l-6.852 3.89v7.078z"/>
        <path fill="#1C2E4C" d="M44.803 15.714c.14.081.225.23.225.39v7.102a.452.452 0 0 1-.23.393l-6.852 3.867a.452.452 0 0 1-.675-.393v-7.079c0-.162.088-.313.23-.393l6.851-3.89a.452.452 0 0 1 .45.003zm-6.627 4.544v6.04l5.947-3.357v-6.06l-5.947 3.377z"/>
        <path fill="#FFF" d="M30.895 23.206v-7.101l6.83 3.89v7.078z"/>
        <path fill="#1C2E4C" d="M30.667 15.714a.452.452 0 0 1 .452-.002l6.829 3.89c.141.08.228.23.228.392v7.079a.452.452 0 0 1-.675.393l-6.83-3.867a.452.452 0 0 1-.229-.393v-7.101c0-.161.086-.31.225-.391zm.68 1.169v6.059l5.925 3.355v-6.04l-5.925-3.374z"/>
        <path fill="#FFF" d="M37.724 12.238l-6.829 3.867 6.83 3.89 6.851-3.89z"/>
        <path fill="#1C2E4C" d="M37.501 11.844a.452.452 0 0 1 .445 0l6.852 3.867a.452.452 0 0 1 .001.787l-6.852 3.89a.452.452 0 0 1-.447 0l-6.83-3.89a.452.452 0 0 1 .002-.787l6.83-3.867zm.223.914l-5.913 3.348 5.913 3.368 5.934-3.368-5.934-3.348z"/>
        <path fill="#FFF" d="M35.235 28.7v-7.1l-6.83 3.867v7.1z"/>
        <path fill="#1C2E4C" d="M35.463 21.21c.139.08.224.23.224.39v7.1a.452.452 0 0 1-.23.394l-6.829 3.867a.452.452 0 0 1-.675-.393v-7.101c0-.163.088-.313.23-.394l6.83-3.866a.452.452 0 0 1 .45.002zm-6.605 4.52v6.062l5.925-3.355v-6.061l-5.925 3.355z"/>
        <path fill="#FFF" d="M21.554 28.7v-7.1l6.852 3.867v7.1z"/>
        <path fill="#1C2E4C" d="M21.328 21.21a.452.452 0 0 1 .45-.004l6.852 3.867c.142.08.23.23.23.394v7.1a.452.452 0 0 1-.675.395l-6.852-3.867a.452.452 0 0 1-.23-.394v-7.1c0-.162.086-.31.225-.391zm.68 1.165v6.062l5.947 3.356v-6.062l-5.947-3.356z"/>
        <path fill="#FFF" d="M28.406 17.733L21.554 21.6l6.852 3.867 6.829-3.867z"/>
        <path fill="#1C2E4C" d="M28.185 17.34a.452.452 0 0 1 .446 0l6.829 3.867a.452.452 0 0 1 0 .787l-6.83 3.867a.452.452 0 0 1-.445 0l-6.852-3.867a.452.452 0 0 1 0-.788l6.852-3.867zm-5.709 4.26l5.931 3.348L34.32 21.6l-5.912-3.347-5.931 3.347z"/>
        <path fill="#FFF" d="M25.92 34.173v-7.1l-6.83 3.889v7.078z"/>
        <path fill="#1C2E4C" d="M26.147 26.682c.14.08.225.23.225.39v7.101a.452.452 0 0 1-.23.394l-6.829 3.867a.452.452 0 0 1-.675-.394v-7.078c0-.162.087-.312.228-.393l6.83-3.89a.452.452 0 0 1 .45.003zm-6.605 4.543v6.04l5.925-3.355v-6.06l-5.925 3.375z"/>
        <path fill="#FFF" d="M12.238 34.173v-7.1l6.852 3.889v7.078z"/>
        <path fill="#1C2E4C" d="M12.01 26.682a.452.452 0 0 1 .451-.003l6.852 3.89c.142.08.23.23.23.393v7.078a.452.452 0 0 1-.675.394l-6.852-3.867a.452.452 0 0 1-.23-.394v-7.1c0-.161.085-.31.224-.391zm.68 1.167v6.06l5.948 3.357v-6.04l-5.948-3.377z"/>
        <path fill="#FFF" d="M19.09 23.206l-6.852 3.867 6.852 3.89 6.83-3.89z"/>
        <path fill="#1C2E4C" d="M18.868 22.812a.452.452 0 0 1 .445 0l6.83 3.867a.452.452 0 0 1 0 .786l-6.83 3.89a.452.452 0 0 1-.446 0l-6.852-3.89a.452.452 0 0 1 0-.786l6.853-3.867zm-5.712 4.262l5.934 3.368 5.913-3.368-5.913-3.349-5.934 3.349z"/>
        <path fill="#FFF" d="M51.405 27.073v-7.079l-6.83 3.867v7.101z"/>
        <path fill="#1C2E4C" d="M51.633 19.604c.139.08.224.23.224.39v7.078a.452.452 0 0 1-.228.393l-6.83 3.89a.452.452 0 0 1-.676-.393v-7.1c0-.164.088-.314.23-.394l6.83-3.867a.452.452 0 0 1 .45.003zm-6.605 4.521v6.059l5.925-3.374v-6.04l-5.925 3.355z"/>
        <path fill="#FFF" d="M37.724 27.073v-7.079l6.852 3.867v7.101z"/>
        <path fill="#1C2E4C" d="M37.495 19.604a.452.452 0 0 1 .45-.003l6.853 3.866c.142.08.23.231.23.394v7.101a.452.452 0 0 1-.676.393l-6.852-3.89a.452.452 0 0 1-.229-.393v-7.078c0-.16.086-.31.224-.39zm.68 1.165v6.04l5.948 3.376v-6.06l-5.947-3.356z"/>
        <path fill="#FFF" d="M44.576 16.105l-6.852 3.89 6.852 3.866 6.829-3.867z"/>
        <path fill="#1C2E4C" d="M44.352 15.712a.452.452 0 0 1 .447 0l6.83 3.89a.452.452 0 0 1-.001.786l-6.83 3.867a.452.452 0 0 1-.445 0l-6.852-3.867a.452.452 0 0 1 0-.787l6.851-3.89zm-5.71 4.281l5.933 3.349 5.914-3.349-5.914-3.368-5.933 3.368z"/>
    </g>
</svg>
