<svg xmlns="http://www.w3.org/2000/svg" width="66" height="66" viewBox="0 0 66 66">
    <g fill="none" fill-rule="evenodd">
        <path fill="#F7986B" fill-rule="nonzero" d="M0 33C0 14.775 14.775 0 33 0s33 14.775 33 33-14.775 33-33 33S0 51.225 0 33z"/>
        <path fill="#FFF" d="M9.499 35.3l8.12-5.614 7.18 4.239v7.62l5.43 4.835-.002 2.268-5.233 4.532H20.57zM35.16 48.654l-.01-2.283 5.413-4.825v-7.621l7.1-4.29L55.77 35.3 44.752 53.128H40.39z"/>
        <path fill="#FFF" d="M27.462 33.925L24.82 27.53h15.71l-2.589 6.395.765 7.145-6.063.012-5.99.01zM32.643 25.78l-14.93-.007 2.776-11.46h24.237l2.925 11.475z"/>
    </g>
</svg>
