<svg xmlns="http://www.w3.org/2000/svg" width="66" height="67" viewBox="0 0 66 67">
    <g fill="none" fill-rule="nonzero" transform="translate(0 .333)">
        <circle cx="33" cy="33" r="33" fill="#1A53F0"/>
        <path fill="#FFF" d="M24.454 35.66c-4.957 0-8.974 4.022-8.974 8.983 0 4.96 4.018 8.982 8.974 8.982 4.957 0 8.974-4.021 8.974-8.982 0-4.961-4.017-8.982-8.974-8.982zm0 15.248a6.26 6.26 0 0 1-6.257-6.262 6.26 6.26 0 0 1 6.257-6.262 6.26 6.26 0 0 1 6.256 6.262 6.27 6.27 0 0 1-6.256 6.262zM43.619 16.5c-4.956 0-8.974 4.021-8.974 8.982 0 4.961 4.018 8.982 8.974 8.982 4.957 0 8.975-4.021 8.975-8.982 0-4.96-4.018-8.982-8.975-8.982zm0 15.247a6.26 6.26 0 0 1-6.256-6.262 6.26 6.26 0 0 1 6.256-6.262 6.26 6.26 0 0 1 6.257 6.262 6.27 6.27 0 0 1-6.257 6.262zM24.454 16.5a8.981 8.981 0 0 0-8.805 7.2 8.99 8.99 0 0 0 5.306 10.065 8.974 8.974 0 0 0 10.907-3.21 8.992 8.992 0 0 0-.981-11.338h2.545V16.5h-8.972zm6.256 8.982a6.26 6.26 0 0 1-6.256 6.262 6.26 6.26 0 0 1-6.257-6.262 6.26 6.26 0 0 1 6.257-6.262 6.27 6.27 0 0 1 6.26 6.262h-.004z"/>
    </g>
</svg>
