<svg xmlns="http://www.w3.org/2000/svg" width="66" height="66" viewBox="0 0 66 66">
    <g fill="none" fill-rule="nonzero">
        <circle cx="33" cy="33" r="33" fill="#302C2C"/>
        <path fill="#FFF" d="M55.502 32.372c-.104-.236-.272-.432-.443-.62-3.923-4.439-11.907-13.19-11.907-13.19l-10.14 11.092-10.274-10.987s-8.077 8.826-12.033 13.316c-.514.508-.514 1.422-.053 1.964 2.057 2.342 12.157 13.48 12.157 13.48L33 36.262l10.116 11.176 12.204-13.5s.258-.268.312-.448c.12-.37.035-.776-.129-1.117M16.33 33.608c-.328-.389-.218-1.003.089-1.37 1.291-1.47 6.459-7.014 6.459-7.014l7.197 7.643-7.21 7.885s-4.412-4.71-6.535-7.144m32.976.261c-.13.275-.529.731-.529.731l-5.59 6.074L35.972 33l7.103-7.785s4.093 4.239 5.967 6.516c.159.2.346.388.427.638.172.493.063 1.043-.163 1.499"/>
    </g>
</svg>
