<?xml version="1.0" encoding="utf-8"?>
<!-- Generator: Adobe Illustrator 22.0.0, SVG Export Plug-In . SVG Version: 6.00 Build 0)  -->
<svg version="1.1" id="Layer_1" xmlns="http://www.w3.org/2000/svg" xmlns:xlink="http://www.w3.org/1999/xlink" x="0px" y="0px"
	 viewBox="0 0 1366 501" style="enable-background:new 0 0 1366 501;" xml:space="preserve">
<style type="text/css">
	.st0{fill:#FFFFFF;}
	.st1{fill:url(#SVGID_1_);}
	.st2{opacity:0.232;fill:url(#SVGID_2_);enable-background:new    ;}
	.st3{opacity:0.13;fill:url(#SVGID_3_);enable-background:new    ;}
</style>
<rect x="-18.4" y="-54.4" class="st0" width="1399.4" height="551.4"/>
<g>
	
		<linearGradient id="SVGID_1_" gradientUnits="userSpaceOnUse" x1="0.554" y1="634.5954" x2="0.4947" y2="635.4009" gradientTransform="matrix(2135.6978 -74.5802 17.694 506.6911 -11366.2197 -321640.7188)">
		<stop  offset="0" style="stop-color:#FFFEE1"/>
		<stop  offset="1" style="stop-color:#F4FBFA"/>
	</linearGradient>
	<path class="st1" d="M-113.3,551.1c-3.3-95.2-31.5-495.7-17.3-496.2c89-26.1,241.2-1.5,330.9,40.4c65,30.4,135.5,63,209.2,74.9
		c249.4,40.1,435.9-45.4,567.5-32.4c142.8,14,311.1,173.4,545.3,120c119-27.1-47.9-100.7,79.7-108.5c118.4-7.3,288-6,393.4,31.2
		c10.1,3.6,3.1,89.4,3.1,89.4s3.9,204.1,4,207.2C1793,487.7,1087.7,512.4-113.3,551.1L-113.3,551.1z"/>
	
		<linearGradient id="SVGID_2_" gradientUnits="userSpaceOnUse" x1="0.446" y1="634.5806" x2="0.4813" y2="635.2764" gradientTransform="matrix(2135.6985 -74.5802 17.694 506.6911 -11367.0244 -321640.7188)">
		<stop  offset="0" style="stop-color:#188C92;stop-opacity:0.536"/>
		<stop  offset="1" style="stop-color:#188C92;stop-opacity:0"/>
	</linearGradient>
	<path class="st2" d="M1359.5,260.5c50.3,7.2,103.9,6.9,161.6-6.2c119.3-27.1-48-100.7,79.9-108.5c118.7-7.3,288.8-6,394.5,31.2
		c10.1,3.6,3.1,89.4,3.1,89.4s9.9,234.1,10,237.2c-210.1,10.6-923.4,5.3-2127.8,44l0,0c-3.3-95.2-31.6-495.7-17.3-496.2
		c89.3-26.1,241.9-1.5,331.8,40.4c65.2,30.4,135.9,63,209.8,74.9c250.1,40.1,437.1-45.4,569.1-32.4
		C1082.3,144.9,1204.9,238.2,1359.5,260.5"/>
	
		<linearGradient id="SVGID_3_" gradientUnits="userSpaceOnUse" x1="0.2817" y1="635.0219" x2="0.3753" y2="635.2621" gradientTransform="matrix(2135.6985 -74.5802 17.694 506.6911 -11368.0234 -321640.7188)">
		<stop  offset="0" style="stop-color:#69BA9D"/>
		<stop  offset="1" style="stop-color:#188C92;stop-opacity:0"/>
	</linearGradient>
	<path class="st3" d="M-115.2,549.1c-3.3-95.2-31.6-495.7-17.3-496.2c89.3-26.1,241.9-1.5,331.8,40.4c65.2,30.4,135.9,63,209.8,74.9
		c250.1,40.1,437.1-45.4,569.1-32.4c143.2,14,312,173.4,546.9,120c119.3-27.1-48-100.7,79.9-108.5c118.7-7.3,288.8-6,394.5,31.2
		c10.1,3.6,3.1,89.4,3.1,89.4s5.9,226.1,6,229.2C1798.5,507.7,1179.9,549.7-115.2,549.1L-115.2,549.1z"/>
</g>
</svg>
